<?xml version="1.0" encoding="UTF-8" standalone="no"?>
<!DOCTYPE svg PUBLIC "-//W3C//DTD SVG 1.1//EN"
 "http://www.w3.org/Graphics/SVG/1.1/DTD/svg11.dtd">
<!-- Generated by graphviz version 2.40.1 (20161225.0304)
 -->
<!-- Title: PMA Pages: 1 -->
<svg width="134pt" height="488pt"
 viewBox="0.00 0.00 134.00 488.00" xmlns="http://www.w3.org/2000/svg" xmlns:xlink="http://www.w3.org/1999/xlink">
<g id="graph0" class="graph" transform="scale(1 1) rotate(0) translate(4 484)">
<title>PMA</title>
<polygon fill="#ffffff" stroke="transparent" points="-4,4 -4,-484 130,-484 130,4 -4,4"/>
<g id="node1" class="node">
<title></title>
<ellipse fill="none" stroke="#000000" cx="79" cy="-462" rx="27" ry="18"/>
</g>
<!-- a -->
<g id="node2" class="node">
<title>a</title>
<ellipse fill="none" stroke="#000000" cx="39" cy="-373.2" rx="27" ry="18"/>
<text text-anchor="middle" x="39" y="-369" font-family="Times,serif" font-size="14.00" fill="#000000">a</text>
</g>
<!-- &#45;&gt;a -->
<g id="edge1" class="edge">
<title>&#45;&gt;a</title>
<path fill="none" stroke="#000000" d="M62.3297,-447.3504C56.4969,-441.3208 50.4863,-433.8984 46.7854,-426 43.2865,-418.5325 41.2794,-409.8756 40.1498,-401.7589"/>
<polygon fill="#000000" stroke="#000000" points="43.6055,-401.143 39.1186,-391.5452 36.6409,-401.8463 43.6055,-401.143"/>
<text text-anchor="middle" x="49.1073" y="-413.4" font-family="Times,serif" font-size="14.00" fill="#000000">a</text>
</g>
<!-- b -->
<g id="node5" class="node">
<title>b</title>
<ellipse fill="none" stroke="#000000" cx="99" cy="-195.6" rx="27" ry="18"/>
<text text-anchor="middle" x="99" y="-191.4" font-family="Times,serif" font-size="14.00" fill="#000000">b</text>
</g>
<!-- &#45;&gt;b -->
<g id="edge6" class="edge">
<title>&#45;&gt;b</title>
<path fill="none" stroke="#000000" d="M80.3747,-443.6892C83.8083,-397.9536 92.7784,-278.4719 96.8881,-223.7306"/>
<polygon fill="#000000" stroke="#000000" points="100.3836,-223.9206 97.6421,-213.6866 93.4032,-223.3965 100.3836,-223.9206"/>
<text text-anchor="middle" x="92.5" y="-324.6" font-family="Times,serif" font-size="14.00" fill="#000000">b</text>
</g>
<!-- a&#45;&gt; -->
<g id="edge3" class="edge">
<title>a&#45;&gt;</title>
<path fill="none" stroke="#000000" stroke-dasharray="1,5" d="M46.8863,-390.7076C52.58,-403.3475 60.3751,-420.6527 66.8595,-435.048"/>
<polygon fill="#000000" stroke="#000000" points="63.799,-436.7758 71.0973,-444.456 70.1814,-433.9008 63.799,-436.7758"/>
</g>
<!-- ab -->
<g id="node3" class="node">
<title>ab</title>
<ellipse fill="none" stroke="#000000" cx="39" cy="-284.4" rx="27" ry="18"/>
<text text-anchor="middle" x="39" y="-280.2" font-family="Times,serif" font-size="14.00" fill="#000000">ab</text>
</g>
<!-- a&#45;&gt;ab -->
<g id="edge2" class="edge">
<title>a&#45;&gt;ab</title>
<path fill="none" stroke="#000000" d="M39,-354.8006C39,-342.6949 39,-326.6076 39,-312.8674"/>
<polygon fill="#000000" stroke="#000000" points="42.5001,-312.472 39,-302.472 35.5001,-312.4721 42.5001,-312.472"/>
<text text-anchor="middle" x="42.5" y="-324.6" font-family="Times,serif" font-size="14.00" fill="#000000">b</text>
</g>
<!-- abc -->
<g id="node4" class="node">
<title>abc</title>
<ellipse fill="none" stroke="#000000" cx="27" cy="-195.6" rx="27" ry="18"/>
<text text-anchor="middle" x="27" y="-191.4" font-family="Times,serif" font-size="14.00" fill="#000000">abc</text>
</g>
<!-- ab&#45;&gt;abc -->
<g id="edge4" class="edge">
<title>ab&#45;&gt;abc</title>
<path fill="none" stroke="#000000" d="M36.5716,-266.43C34.9126,-254.153 32.6807,-237.6372 30.7895,-223.6421"/>
<polygon fill="#000000" stroke="#000000" points="34.2325,-222.9845 29.4248,-213.5433 27.2956,-223.9219 34.2325,-222.9845"/>
<text text-anchor="middle" x="38.1073" y="-235.8" font-family="Times,serif" font-size="14.00" fill="#000000">c</text>
</g>
<!-- ab&#45;&gt;b -->
<g id="edge5" class="edge">
<title>ab&#45;&gt;b</title>
<path fill="none" stroke="#000000" stroke-dasharray="1,5" d="M50.2855,-267.6974C59.2527,-254.426 71.934,-235.6577 82.1101,-220.5971"/>
<polygon fill="#000000" stroke="#000000" points="85.0665,-222.4731 87.7651,-212.2277 79.2664,-218.5541 85.0665,-222.4731"/>
</g>
<!-- bc -->
<g id="node6" class="node">
<title>bc</title>
<ellipse fill="none" stroke="#000000" cx="62" cy="-106.8" rx="27" ry="18"/>
<text text-anchor="middle" x="62" y="-102.6" font-family="Times,serif" font-size="14.00" fill="#000000">bc</text>
</g>
<!-- abc&#45;&gt;bc -->
<g id="edge10" class="edge">
<title>abc&#45;&gt;bc</title>
<path fill="none" stroke="#000000" stroke-dasharray="1,5" d="M33.9149,-178.056C38.9004,-165.4071 45.7218,-148.1002 51.3934,-133.7105"/>
<polygon fill="#000000" stroke="#000000" points="54.6887,-134.8945 55.0995,-124.3076 48.1763,-132.3276 54.6887,-134.8945"/>
</g>
<!-- b&#45;&gt; -->
<g id="edge8" class="edge">
<title>b&#45;&gt;</title>
<path fill="none" stroke="#000000" stroke-dasharray="1,5" d="M104.956,-213.3451C106.6095,-219.0999 108.1765,-225.5584 109,-231.6 110.0084,-238.9983 109.2072,-240.9362 109,-248.4 106.8041,-327.514 116.6207,-349.589 96,-426 95.1356,-429.2031 93.9977,-432.4706 92.7192,-435.6659"/>
<polygon fill="#000000" stroke="#000000" points="89.4783,-434.3399 88.5951,-444.8979 95.8696,-437.195 89.4783,-434.3399"/>
</g>
<!-- b&#45;&gt;bc -->
<g id="edge7" class="edge">
<title>b&#45;&gt;bc</title>
<path fill="none" stroke="#000000" d="M91.69,-178.056C86.4196,-165.4071 79.2084,-148.1002 73.2127,-133.7105"/>
<polygon fill="#000000" stroke="#000000" points="76.3718,-132.1922 69.2948,-124.3076 69.9103,-134.8845 76.3718,-132.1922"/>
<text text-anchor="middle" x="86.1073" y="-147" font-family="Times,serif" font-size="14.00" fill="#000000">c</text>
</g>
<!-- bcd -->
<g id="node7" class="node">
<title>bcd</title>
<ellipse fill="none" stroke="#000000" cx="62" cy="-18" rx="27" ry="18"/>
<text text-anchor="middle" x="62" y="-13.8" font-family="Times,serif" font-size="14.00" fill="#000000">bcd</text>
</g>
<!-- bc&#45;&gt;bcd -->
<g id="edge9" class="edge">
<title>bc&#45;&gt;bcd</title>
<path fill="none" stroke="#000000" d="M62,-88.4006C62,-76.2949 62,-60.2076 62,-46.4674"/>
<polygon fill="#000000" stroke="#000000" points="65.5001,-46.072 62,-36.072 58.5001,-46.0721 65.5001,-46.072"/>
<text text-anchor="middle" x="65.5" y="-58.2" font-family="Times,serif" font-size="14.00" fill="#000000">d</text>
</g>
</g>
</svg>
